<svg xmlns="http://www.w3.org/2000/svg" width="406" height="232" viewBox="0 0 406 232">
    <defs>
        <style>
            .cls-1{fill:#003dff}.cls-3{fill:#999}.cls-4{fill:#fff}.cls-5{fill:#f99}.cls-6{fill:#231f20}
        </style>
    </defs>
    <g id="logo_nyan" transform="translate(-459 -364)">
        <path id="Path_520" d="M698 376.6V365H477.6v11.6H466V539h11.6v11.6h232v-174z" class="cls-1" transform="translate(74.2 10.6)"/>
        <path id="Path_521" fill="#55ffa6" d="M675.8 366H478.6v11.6H467v139.2h11.6v11.6h208.8V377.6h-11.6z" transform="translate(84.8 21.2)"/>
        <path id="Path_522" d="M551.2 383.6h-11.6V372h-23.2v11.6H528v11.6h11.6v11.6H470v11.6h69.6V430H528v11.6h-11.6v11.6h23.2v-11.6h11.6V430h11.6v-34.8h-11.6z" class="cls-1" transform="translate(116.6 84.8)"/>
        <path id="Rectangle_1662" d="M0 0H23.2V23.2H0z" class="cls-3" transform="translate(528.6 561.2)"/>
        <path id="Rectangle_1663" d="M0 0H23.2V11.6H0z" class="cls-3" transform="translate(586.6 572.8)"/>
        <path id="Rectangle_1664" d="M0 0H23.2V11.6H0z" class="cls-3" transform="translate(725.8 572.8)"/>
        <path id="Rectangle_1665" d="M0 0H23.2V11.6H0z" class="cls-3" transform="translate(783.8 572.8)"/>
        <path id="Path_523" d="M629.8 404.8V370h-23.2v11.6H595v11.6h-11.6v11.6H537v-11.6h-11.6v-11.6h-11.6V370h-23.2v34.8H479V486h23.2v11.6h116V486h23.2v-81.2z" class="cls-3" transform="translate(212 63.6)"/>
        <path id="Path_524" d="M518 419.4v-23.2h-34.8V373H460v23.2h11.6v11.6h23.2v11.6z" class="cls-3" transform="translate(10.6 95.4)"/>
        <path id="Rectangle_1666" d="M0 0H11.6V11.6H0z" class="cls-4" transform="translate(725.8 491.6)"/>
        <path id="Rectangle_1667" d="M0 0H11.6V11.6H0z" class="cls-4" transform="translate(807 491.6)"/>
        <path id="Path_525" d="M480 377v23.2h23.2V377H480z" class="cls-5" transform="translate(222.6 137.8)"/>
        <path id="Path_526" d="M502.6 377H491v23.2h23.2V377z" class="cls-5" transform="translate(339.2 137.8)"/>
        <path id="Path_527" d="M520 540v-11.6h-11.6V366h-11.6v92.8h-23.2v-11.6H462v23.2h34.8v23.2h-23.2v11.6h23.2V540H520z" class="cls-6" transform="translate(31.8 21.2)"/>
        <path id="Path_528" d="M722.2 391.6h-92.8V380h-11.6v11.6H467v23.2h11.6v-11.6h11.6v11.6h11.6v-11.6H525v11.6h-23.2v11.6h34.8v-23.2h92.8v11.6H641v-11.6h23.2v11.6H641v11.6h34.8v-23.2h11.6v11.6H699v-11.6h23.2v11.6H699v11.6h34.8v-23.2h11.6v-11.6h-23.2z" class="cls-6" transform="translate(84.8 169.6)"/>
        <path id="Path_529" d="M490.2 375.6h197.2V364H467v11.6h23.2z" class="cls-6" transform="translate(84.8)"/>
        <path id="Rectangle_1668" d="M0 0H11.6V11.6H0z" class="cls-6" transform="translate(772.2 375.6)"/>
        <path id="Path_530" d="M475.6 404.2V381H464v34.8h34.8v-11.6h-23.2z" class="cls-6" transform="translate(53 180.2)"/>
        <path id="Rectangle_1669" d="M0 0H11.6V11.6H0z" class="cls-6" transform="translate(540.2 375.6)"/>
        <path id="Path_531" d="M518.8 389.2v46.4H484v11.6h46.4v-11.6H542V424h-11.6v-58h-11.6v23.2z" class="cls-6" transform="translate(265 21.2)"/>
        <path id="Rectangle_1670" d="M0 0H11.6V11.6H0z" class="cls-6" transform="translate(470.6 491.6)"/>
        <path id="Path_532" d="M470.6 373H459v23.2h11.6V373z" class="cls-6" transform="translate(0 95.4)"/>
        <path id="Path_533" d="M472.6 376H461v11.6h23.2V376z" class="cls-6" transform="translate(21.2 127.2)"/>
        <path id="Path_534" d="M483.2 383.6V372H460v11.6h23.2z" class="cls-6" transform="translate(10.6 84.8)"/>
        <path id="Rectangle_1671" d="M0 0H11.6V11.6H0z" class="cls-6" transform="translate(830.2 549.6)"/>
        <path id="Rectangle_1672" d="M0 0H11.6V11.6H0z" class="cls-6" transform="translate(841.8 538)"/>
        <path id="Path_535" d="M493 374v58h11.6v-58z" class="cls-6" transform="translate(360.4 106)"/>
        <path id="Path_536" d="M492 393.2v23.2h11.6V370H492v23.2z" class="cls-6" transform="translate(349.8 63.6)"/>
        <path id="Path_537" d="M513.2 380.6V369H490v11.6h23.2z" class="cls-6" transform="translate(328.6 53)"/>
        <path id="Rectangle_1673" d="M0 0H11.6V11.6H0z" class="cls-6" transform="translate(807 433.6)"/>
        <path id="Rectangle_1674" d="M0 0H11.6V11.6H0z" class="cls-6" transform="translate(737.4 445.2)"/>
        <path id="Rectangle_1675" d="M0 0H11.6V11.6H0z" class="cls-6" transform="translate(725.8 433.6)"/>
        <path id="Path_538" d="M491.6 369H480v11.6h23.2V369z" class="cls-6" transform="translate(222.6 53)"/>
        <path id="Path_539" d="M479 381.6v23.2h11.6V370H479z" class="cls-6" transform="translate(212 63.6)"/>
        <path id="Path_540" d="M478 384.6v58h11.6V373H478z" class="cls-6" transform="translate(201.4 95.4)"/>
        <path id="Rectangle_1676" d="M0 0H11.6V11.6H0z" class="cls-6" transform="translate(691 538)"/>
        <path id="Path_541" d="M552.6 389.6h-23.2V378h-11.6v11.6h-23.2V378H483v23.2h81.2V378h-11.6z" class="cls-6" transform="translate(254.4 148.4)"/>
        <path id="Rectangle_1677" d="M0 0H11.6V11.6H0z" class="cls-6" transform="translate(783.8 503.2)"/>
        <path id="Path_542" d="M505.2 398.2V375h-11.6v11.6H482v11.6h23.2z" class="cls-6" transform="translate(243.8 116.6)"/>
        <path id="Path_543" d="M500.6 386.6H489v11.6h23.2V375h-11.6z" class="cls-6" transform="translate(318 116.6)"/>
        <path id="Path_544" d="M526 401.807v-.007h-23.2v-11.6h11.6v-11.6H526V367h-23.2v11.6h-11.6v11.6h-11.6v11.6H468v11.6h11.6V425h11.6v11.6h11.6v11.6H526v-11.6h-11.6V425h-11.6v-11.6h69.6v-11.593z" class="cls-1" transform="translate(95.4 31.8)"/>
    </g>
</svg>
